<svg width="24" height="24" viewBox="0 0 24 24" fill="none" xmlns="http://www.w3.org/2000/svg">
<path d="M5.71875 1.57031C5.00156 1.72969 4.24219 2.25938 3.85313 2.87344C3.60469 3.2625 3.5625 3.39844 2.625 6.525L1.81406 9.22969L1.50469 9.40781C0.885938 9.76406 0.346875 10.4391 0.126563 11.1328C0.0234375 11.4609 0.0234375 11.475 0.0234375 14.9297V18.3984L0.13125 18.6094C0.1875 18.7266 0.295313 18.9 0.370313 18.9891C0.54375 19.1953 0.984375 19.4344 1.275 19.4766L1.49063 19.5094L1.50938 20.4563C1.52344 21.3141 1.53281 21.4172 1.63125 21.6094C1.79531 21.9422 1.98281 22.1438 2.30625 22.3172L2.60156 22.4766H3.75H4.89844L5.19375 22.3172C5.52188 22.1391 5.6625 21.9938 5.85 21.6375C5.97188 21.4031 5.97656 21.3703 5.99063 20.4469L6.00938 19.5H12.0047H18V20.3625C18 21.0281 18.0188 21.2766 18.075 21.4594C18.1922 21.8156 18.4453 22.1156 18.7969 22.3078L19.1016 22.4766H20.25H21.3984L21.6938 22.3172C22.0219 22.1391 22.1625 21.9938 22.35 21.6375C22.4719 21.4031 22.4766 21.3703 22.4906 20.4563L22.5094 19.5094L22.725 19.4766C23.0016 19.4344 23.4516 19.2 23.6063 19.0172C23.6719 18.9422 23.7797 18.7688 23.85 18.6375L23.9766 18.3984V14.9297C23.9766 11.475 23.9766 11.4609 23.8734 11.1328C23.6531 10.4391 23.1141 9.76406 22.4953 9.40781L22.1859 9.22969L21.375 6.525C20.9297 5.03906 20.5125 3.67031 20.4469 3.49219C20.1422 2.62969 19.4672 1.96875 18.5813 1.65469L18.2109 1.52344L12.1172 1.51406C7.03125 1.50938 5.97188 1.51875 5.71875 1.57031ZM18.3094 6.75C18.6797 7.97344 18.9797 8.98125 18.9844 8.98594C18.9844 8.99531 15.8391 9 11.9953 9C6.23906 9 5.01094 8.99063 5.02969 8.93906C5.04375 8.90625 5.34375 7.90781 5.69531 6.72188C6.05156 5.54063 6.35156 4.55625 6.36094 4.53281C6.37031 4.51406 8.91563 4.50469 12.0094 4.50938L17.6391 4.52344L18.3094 6.75ZM6.61406 12.8859C6.9375 13.0406 7.13906 13.2328 7.31719 13.5563C7.4625 13.8281 7.47656 13.8844 7.47656 14.25C7.47656 14.6156 7.4625 14.6719 7.31719 14.9438C7.13906 15.2719 6.98906 15.4125 6.6375 15.6C6.43594 15.7031 6.3375 15.7219 6 15.7219C5.63438 15.7266 5.57813 15.7125 5.30625 15.5672C4.98281 15.3938 4.79531 15.1922 4.63125 14.8594C4.48125 14.55 4.48594 13.9406 4.64063 13.6172C4.8375 13.2141 5.21719 12.9047 5.64844 12.7922C5.87813 12.7313 6.38906 12.7828 6.61406 12.8859ZM18.6141 12.8859C18.9375 13.0406 19.1391 13.2328 19.3172 13.5563C19.4625 13.8281 19.4766 13.8844 19.4766 14.25C19.4766 14.6156 19.4625 14.6719 19.3172 14.9438C19.1391 15.2719 18.9891 15.4125 18.6375 15.6C18.4359 15.7031 18.3375 15.7219 18 15.7219C17.6344 15.7266 17.5781 15.7125 17.3063 15.5672C16.9828 15.3938 16.7953 15.1922 16.6313 14.8594C16.4813 14.55 16.4859 13.9406 16.6406 13.6172C16.8375 13.2141 17.2172 12.9047 17.6484 12.7922C17.8781 12.7313 18.3891 12.7828 18.6141 12.8859Z" fill="black"/>
</svg>
