<svg width="24" height="24" viewBox="0 0 24 24" fill="none" xmlns="http://www.w3.org/2000/svg">
<g clip-path="url(#clip0_161_87)">
<path d="M10.852 0.0515571C8.57852 0.285932 6.43164 1.15312 4.59883 2.56874C4.07852 2.96718 2.96758 4.07812 2.56914 4.59843C1.82852 5.54999 1.1207 6.82031 0.722266 7.89843C0.501953 8.49843 0.220703 9.61875 0.112891 10.3359C-0.00898438 11.1234 -0.00898438 12.8719 0.112891 13.6641C0.220703 14.3719 0.501953 15.4969 0.726953 16.1062C1.12539 17.1891 1.82852 18.45 2.56914 19.4016C2.94883 19.8937 4.02227 20.9766 4.50039 21.3562C5.46133 22.1109 6.80664 22.875 7.89414 23.2734C8.50352 23.4984 9.62852 23.7797 10.3363 23.8875C11.0301 23.9906 12.8301 24.0094 13.477 23.9156C15.7363 23.5922 17.6395 22.7953 19.402 21.4312C19.8895 21.0562 20.9723 19.9875 21.3566 19.5C22.1113 18.5437 22.8707 17.1984 23.2738 16.1062C23.4988 15.4969 23.7801 14.3719 23.8879 13.6641C23.9535 13.2422 23.9723 12.825 23.9723 12C23.9723 11.175 23.9535 10.7578 23.8879 10.3359C23.7801 9.62812 23.4988 8.50312 23.2738 7.89375C22.866 6.7875 22.116 5.46562 21.3566 4.49999C20.9863 4.03593 19.9504 2.99999 19.477 2.62499C17.7895 1.28906 15.8535 0.449995 13.6879 0.117182C13.0973 0.0281196 11.452 -0.0140679 10.852 0.0515571ZM12.8957 2.90624C16.9598 3.31874 20.2504 6.35625 20.9957 10.3734L21.0379 10.6031L19.4113 10.5797C17.6535 10.5562 17.4941 10.5375 16.6926 10.2609C15.9285 9.99843 15.2957 9.59531 14.6066 8.92968C13.7301 8.08593 13.0832 7.80937 12.0004 7.80937C10.9082 7.80937 10.252 8.1 9.34727 8.97656C8.70977 9.59062 8.02539 10.0219 7.26602 10.2797C6.50664 10.5375 6.32852 10.5562 4.58945 10.5797L2.96289 10.6031L3.02852 10.2422C3.24414 9.12187 3.73164 7.93593 4.39258 6.95156C6.27695 4.12968 9.5582 2.56874 12.8957 2.90624ZM12.4316 10.6453C12.8395 10.7297 13.1723 10.9172 13.477 11.2219C14.6863 12.4359 14.0301 14.4844 12.3332 14.775C11.6723 14.8875 11.0207 14.6766 10.5238 14.1797C9.68945 13.3547 9.68945 12.0469 10.5238 11.2266C11.0535 10.7016 11.7285 10.5 12.4316 10.6453ZM6.72695 14.9531C9.08008 15.5625 10.416 18.0094 9.67539 20.3578C9.60977 20.5594 9.52539 20.7375 9.48789 20.7516C9.39414 20.7844 8.66289 20.5266 8.08633 20.2547C6.59102 19.5469 5.31133 18.4312 4.35039 16.9922C4.03164 16.5094 3.49727 15.45 3.53008 15.3609C3.5582 15.2812 4.48633 14.9625 4.93164 14.8781C5.3957 14.7891 6.23945 14.8219 6.72695 14.9531ZM18.9848 14.8641C19.3832 14.925 20.4379 15.2766 20.4707 15.3562C20.4848 15.3891 20.3676 15.6797 20.2129 15.9937C19.2988 17.8594 17.766 19.3781 15.9145 20.2547C15.3379 20.5266 14.6066 20.7844 14.5129 20.7516C14.4191 20.7141 14.227 20.0859 14.1566 19.5984C13.8379 17.4234 15.3379 15.3281 17.5316 14.8828C17.9066 14.8078 18.5816 14.7984 18.9848 14.8641Z" fill="black"/>
<path d="M11.6625 12.0984C11.4609 12.2016 11.2969 12.4781 11.2969 12.7031C11.2969 12.9375 11.4609 13.2047 11.6719 13.3125C11.7703 13.3641 11.9203 13.4062 12 13.4062C12.3563 13.4062 12.7031 13.0594 12.7031 12.7031C12.7031 12.4688 12.5391 12.2016 12.3281 12.0938C12.0984 11.9766 11.8875 11.9766 11.6625 12.0984Z" fill="black"/>
</g>
<defs>
<clipPath id="clip0_161_87">
<rect width="24" height="24" fill="white"/>
</clipPath>
</defs>
</svg>
